<?xml version="1.0" standalone="no"?>
<!DOCTYPE svg PUBLIC "-//W3C//DTD SVG 20010904//EN"
 "http://www.w3.org/TR/2001/REC-SVG-20010904/DTD/svg10.dtd">
<svg version="1.0" xmlns="http://www.w3.org/2000/svg"
 width="216.000000pt" height="166.000000pt" viewBox="0 0 216.000000 166.000000"
 preserveAspectRatio="xMidYMid meet">

<g transform="translate(0.000000,166.000000) scale(0.100000,-0.100000)"
fill="#000000" stroke="none">
<path d="M220 1390 l0 -50 -45 0 -45 0 0 -415 0 -415 45 0 45 0 0 415 0 415
758 2 757 3 3 48 3 47 -760 0 -761 0 0 -50z"/>
<path d="M910 1075 l0 -145 25 0 25 0 0 145 0 145 -25 0 -25 0 0 -145z"/>
<path d="M1007 1214 c-4 -4 -7 -63 -7 -130 0 -140 6 -154 71 -154 32 0 39 3
39 20 0 15 -7 20 -25 20 -24 0 -25 2 -25 65 0 63 1 65 25 65 20 0 25 5 25 25
0 20 -5 25 -24 25 -21 0 -25 6 -28 33 -2 23 -8 33 -23 35 -12 2 -24 0 -28 -4z"/>
<path d="M419 1121 c-65 -65 -20 -201 67 -201 8 0 28 7 44 15 l30 16 0 -56 c0
-55 0 -55 30 -55 l31 0 -3 153 -3 152 -27 3 c-21 3 -28 -1 -28 -14 0 -16 -1
-16 -18 -1 -30 28 -89 22 -123 -12z m119 -27 c27 -19 30 -78 5 -106 -23 -25
-68 -23 -87 4 -47 67 18 147 82 102z"/>
<path d="M660 1062 c0 -80 2 -91 23 -110 28 -26 88 -30 111 -6 15 14 16 14 16
0 0 -11 9 -16 30 -16 l30 0 0 110 0 110 -30 0 -30 0 0 -74 c0 -81 -13 -106
-54 -106 -37 0 -46 19 -46 102 0 77 0 78 -25 78 -25 0 -25 -1 -25 -88z"/>
<path d="M1140 1066 c0 -105 19 -136 82 -136 25 0 49 7 60 17 17 15 18 15 18
0 0 -11 8 -17 25 -17 l25 0 0 110 c0 109 0 110 -24 110 -23 0 -24 -4 -28 -76
-4 -79 -18 -104 -59 -104 -36 0 -49 28 -49 106 0 72 -1 74 -25 74 -25 0 -25
-1 -25 -84z"/>
<path d="M1390 1040 l0 -110 25 0 c24 0 25 2 25 66 0 81 11 104 50 104 25 0
30 4 30 25 0 29 -24 33 -58 9 -20 -14 -22 -14 -22 0 0 10 -9 16 -25 16 l-25 0
0 -110z"/>
<path d="M1567 1126 c-31 -29 -42 -64 -34 -113 8 -45 31 -70 78 -85 42 -12 85
-1 114 32 16 17 15 19 -5 30 -17 9 -25 8 -39 -4 -29 -26 -91 -13 -91 19 0 12
16 15 75 15 l75 0 0 36 c0 82 -111 127 -173 70z m105 -33 c29 -26 22 -33 -32
-33 -53 0 -68 18 -32 39 25 15 43 13 64 -6z"/>
<path d="M1930 735 l0 -415 -755 0 -755 0 0 -50 0 -50 755 0 755 0 0 50 0 50
50 0 50 0 0 415 0 415 -50 0 -50 0 0 -415z"/>
<path d="M1060 655 l0 -145 25 0 c23 0 25 4 25 48 l0 47 46 -48 c38 -40 51
-48 77 -45 l31 3 -52 55 -51 55 52 53 51 52 -34 0 c-27 0 -44 -9 -77 -42 l-43
-42 0 77 c0 75 0 77 -25 77 l-25 0 0 -145z"/>
<path d="M624 726 c-42 -19 -64 -52 -64 -99 0 -76 42 -117 120 -117 81 0 130
83 96 164 -11 26 -26 41 -50 51 -43 18 -62 18 -102 1z m88 -53 c27 -24 24 -87
-4 -107 -31 -22 -45 -20 -73 9 -30 29 -32 68 -5 95 24 24 57 26 82 3z"/>
<path d="M870 723 c-57 -29 -77 -101 -46 -162 31 -58 128 -71 177 -22 34 35
36 47 8 56 -14 5 -27 -1 -44 -19 -30 -33 -49 -33 -82 0 -20 20 -24 31 -19 57
11 57 69 77 103 34 11 -14 26 -21 41 -19 29 4 28 15 -5 52 -36 39 -85 48 -133
23z"/>
<path d="M1320 733 c-31 -12 -50 -37 -50 -64 0 -33 24 -52 88 -69 32 -8 42
-16 40 -28 -5 -26 -62 -28 -80 -3 -10 14 -21 18 -36 14 -28 -7 -28 -18 3 -48
19 -20 34 -25 72 -25 64 0 93 21 93 65 0 40 -23 60 -83 70 -45 9 -56 23 -32
41 16 12 22 12 41 -1 45 -29 82 -9 47 26 -20 20 -77 33 -103 22z"/>
<path d="M420 620 l0 -110 25 0 c24 0 25 2 25 74 0 82 13 106 56 106 17 0 24
5 24 20 0 25 -41 28 -64 4 -15 -14 -16 -14 -16 0 0 10 -9 16 -25 16 l-25 0 0
-110z"/>
</g>
</svg>
