<?xml version="1.0" encoding="UTF-8"?>
<svg xmlns="http://www.w3.org/2000/svg" xmlns:xlink="http://www.w3.org/1999/xlink" width="300px" height="158px" viewBox="0 0 300 158" version="1.1">
<g id="surface1">
<path style=" stroke:none;fill-rule:nonzero;fill:rgb(0%,0%,0%);fill-opacity:1;" d="M 124.75 62.535156 L 124.75 63.910156 L 122.25 63.910156 L 122.25 88.222656 L 125 88.222656 L 125 64.164062 L 169.25 64.164062 L 169.25 61.15625 L 124.75 61.15625 Z M 124.75 62.535156 "/>
<path style=" stroke:none;fill-rule:nonzero;fill:rgb(0%,0%,0%);fill-opacity:1;" d="M 144.800781 71.855469 L 144.875 76.066406 L 146.625 76.066406 L 146.699219 71.855469 L 146.75 67.671875 L 144.75 67.671875 Z M 144.800781 71.855469 "/>
<path style=" stroke:none;fill-rule:nonzero;fill:rgb(0%,0%,0%);fill-opacity:1;" d="M 147.75 71.507812 C 147.75 75.992188 147.851562 76.191406 149.824219 76.191406 C 150.976562 76.191406 151 76.167969 151 75.441406 C 151 74.765625 150.925781 74.6875 150.25 74.6875 L 149.5 74.6875 L 149.5 71.179688 L 150.25 71.179688 C 150.925781 71.179688 151 71.105469 151 70.429688 C 151 69.75 150.925781 69.675781 150.25 69.675781 C 149.550781 69.675781 149.5 69.625 149.5 68.675781 C 149.5 67.695312 149.476562 67.671875 148.625 67.671875 L 147.75 67.671875 Z M 147.75 71.507812 "/>
<path style=" stroke:none;fill-rule:nonzero;fill:rgb(0%,0%,0%);fill-opacity:1;" d="M 131.199219 69.828125 C 130.226562 70.328125 129.75 71.429688 129.75 73.058594 C 129.75 74.289062 129.851562 74.5625 130.574219 75.367188 C 131.324219 76.167969 131.574219 76.269531 132.574219 76.269531 C 133.351562 76.269531 133.898438 76.117188 134.25 75.816406 C 134.75 75.367188 134.75 75.367188 134.75 77.019531 L 134.75 78.699219 L 136.5 78.699219 L 136.5 69.675781 L 135.625 69.675781 C 135 69.675781 134.75 69.777344 134.75 70.078125 C 134.75 70.402344 134.625 70.378906 134.101562 69.953125 C 133.324219 69.351562 132.148438 69.300781 131.199219 69.828125 Z M 134.449219 71.605469 C 134.875 72.207031 134.824219 73.6875 134.324219 74.238281 C 133.824219 74.789062 132.425781 74.839844 131.898438 74.289062 C 131.273438 73.660156 131.375 71.808594 132.074219 71.304688 C 132.726562 70.828125 133.976562 70.980469 134.449219 71.605469 Z M 134.449219 71.605469 "/>
<path style=" stroke:none;fill-rule:nonzero;fill:rgb(0%,0%,0%);fill-opacity:1;" d="M 164.550781 69.925781 C 162.875 70.980469 162.523438 73.785156 163.925781 75.242188 C 165.25 76.617188 167.074219 76.71875 168.5 75.515625 C 169.425781 74.765625 169.425781 74.589844 168.601562 74.210938 C 168.050781 73.960938 167.851562 73.988281 167.5 74.3125 C 166.875 74.890625 165.523438 74.714844 165.050781 73.988281 L 164.699219 73.4375 L 169.574219 73.4375 L 169.425781 72.28125 C 169.25 70.652344 168.226562 69.652344 166.574219 69.5 C 165.675781 69.425781 165.175781 69.527344 164.550781 69.925781 Z M 167.199219 71.332031 C 168.074219 71.933594 167.851562 72.183594 166.375 72.183594 C 165.351562 72.183594 165 72.082031 165 71.808594 C 165 71.40625 165.675781 70.953125 166.25 70.929688 C 166.476562 70.929688 166.898438 71.105469 167.199219 71.332031 Z M 167.199219 71.332031 "/>
<path style=" stroke:none;fill-rule:nonzero;fill:rgb(0%,0%,0%);fill-opacity:1;" d="M 174.75 81.582031 L 174.75 93.738281 L 130.5 93.738281 L 130.5 96.746094 L 175 96.746094 L 175 93.988281 L 177.75 93.988281 L 177.75 69.425781 L 174.75 69.425781 Z M 174.75 81.582031 "/>
<path style=" stroke:none;fill-rule:nonzero;fill:rgb(0%,0%,0%);fill-opacity:1;" d="M 137.5 71.933594 C 137.5 74.363281 137.851562 75.464844 138.726562 75.941406 C 139.476562 76.316406 141.148438 76.242188 141.523438 75.792969 C 141.800781 75.441406 141.851562 75.441406 142.050781 75.792969 C 142.175781 76.015625 142.601562 76.191406 143 76.191406 L 143.75 76.191406 L 143.75 69.675781 L 142 69.675781 L 142 71.78125 C 142 74.164062 141.726562 74.6875 140.5 74.6875 C 139.5 74.6875 139.25 74.085938 139.25 71.707031 L 139.25 69.675781 L 137.5 69.675781 Z M 137.5 71.933594 "/>
<path style=" stroke:none;fill-rule:nonzero;fill:rgb(0%,0%,0%);fill-opacity:1;" d="M 151.550781 72.207031 C 151.648438 74.6875 151.648438 74.765625 152.449219 75.464844 C 153.375 76.292969 154.773438 76.445312 155.699219 75.792969 C 156.199219 75.441406 156.25 75.441406 156.25 75.792969 C 156.25 76.09375 156.5 76.191406 157.125 76.191406 L 158 76.191406 L 158 69.675781 L 156.25 69.675781 L 156.25 71.480469 C 156.25 73.9375 155.898438 74.5625 154.625 74.5625 L 153.625 74.5625 L 153.550781 72.109375 L 153.476562 69.675781 L 151.449219 69.675781 Z M 151.550781 72.207031 "/>
<path style=" stroke:none;fill-rule:nonzero;fill:rgb(0%,0%,0%);fill-opacity:1;" d="M 159 72.933594 L 159 76.191406 L 160.75 76.191406 L 160.75 73.988281 C 160.75 71.53125 160.925781 71.179688 162.175781 71.179688 C 162.925781 71.179688 163 71.105469 163 70.429688 C 163 69.75 162.925781 69.675781 162.175781 69.675781 C 161.726562 69.675781 161.226562 69.800781 161.050781 69.976562 C 160.824219 70.203125 160.75 70.203125 160.75 69.976562 C 160.75 69.800781 160.398438 69.675781 159.875 69.675781 L 159 69.675781 Z M 159 72.933594 "/>
<path style=" stroke:none;fill-rule:nonzero;fill:rgb(0%,0%,0%);fill-opacity:1;" d="M 149.25 83.960938 L 149.25 88.222656 L 151 88.222656 L 151 85.589844 L 152.148438 86.921875 C 153.199219 88.125 153.375 88.222656 154.425781 88.222656 L 155.574219 88.222656 L 154 86.570312 L 152.425781 84.941406 L 153.851562 83.511719 C 154.625 82.710938 155.25 81.984375 155.25 81.882812 C 155.25 81.78125 154.824219 81.707031 154.324219 81.707031 C 153.550781 81.707031 153.199219 81.90625 152.199219 82.886719 L 151 84.0625 L 151 79.703125 L 149.25 79.703125 Z M 149.25 83.960938 "/>
<path style=" stroke:none;fill-rule:nonzero;fill:rgb(0%,0%,0%);fill-opacity:1;" d="M 136.75 81.78125 C 135.5 82.207031 134.75 83.460938 134.75 85.089844 C 134.75 87.121094 136.125 88.472656 138.125 88.472656 C 141.773438 88.472656 142.875 83.210938 139.5 81.855469 C 138.324219 81.382812 137.925781 81.382812 136.75 81.78125 Z M 139.351562 83.761719 C 139.773438 84.339844 139.875 85.640625 139.550781 86.117188 C 138.949219 87.046875 137.226562 87.09375 136.75 86.21875 C 136.375 85.492188 136.449219 84.1875 136.925781 83.660156 C 137.5 83.011719 138.875 83.058594 139.351562 83.761719 Z M 139.351562 83.761719 "/>
<path style=" stroke:none;fill-rule:nonzero;fill:rgb(0%,0%,0%);fill-opacity:1;" d="M 144.523438 81.632812 C 141.550781 82.207031 141.074219 86.945312 143.875 88.125 C 145.648438 88.875 147.574219 88.273438 148.351562 86.746094 C 148.773438 85.941406 148.726562 85.867188 147.699219 85.617188 C 147.175781 85.492188 147 85.566406 146.875 85.992188 C 146.648438 86.667969 145.675781 87.019531 144.898438 86.71875 C 143.773438 86.292969 143.398438 84.816406 144.148438 83.761719 C 144.699219 82.960938 146.050781 83.011719 146.675781 83.863281 C 147.050781 84.386719 147.273438 84.464844 147.824219 84.339844 C 148.726562 84.113281 148.699219 83.4375 147.773438 82.507812 C 147.148438 81.882812 145.851562 81.355469 145.273438 81.480469 C 145.199219 81.507812 144.851562 81.582031 144.523438 81.632812 Z M 144.523438 81.632812 "/>
<path style=" stroke:none;fill-rule:nonzero;fill:rgb(0%,0%,0%);fill-opacity:1;" d="M 157.074219 81.65625 C 156.050781 81.957031 155.5 82.660156 155.5 83.5625 C 155.5 84.613281 156.375 85.390625 157.75 85.617188 C 158.976562 85.816406 159.351562 86.066406 159.175781 86.570312 C 158.925781 87.171875 157.351562 87.09375 157 86.46875 C 156.726562 85.941406 156.101562 85.816406 155.523438 86.191406 C 155.226562 86.394531 155.199219 86.542969 155.449219 87.09375 C 156.125 88.597656 159.300781 88.925781 160.425781 87.597656 C 161.601562 86.242188 160.824219 84.6875 158.773438 84.3125 C 157.375 84.0625 156.898438 83.761719 157.273438 83.3125 C 157.648438 82.859375 158.375 82.859375 158.851562 83.335938 C 159.523438 84.011719 160.898438 83.660156 160.601562 82.886719 C 160.273438 81.984375 158.273438 81.28125 157.074219 81.65625 Z M 157.074219 81.65625 "/>
<path style=" stroke:none;fill-rule:nonzero;fill:rgb(0%,0%,0%);fill-opacity:1;" d="M 130.5 84.964844 L 130.5 88.222656 L 132.25 88.222656 L 132.25 86.144531 C 132.25 85.015625 132.351562 83.9375 132.476562 83.738281 C 132.601562 83.535156 133.125 83.3125 133.648438 83.234375 C 134.476562 83.109375 134.625 82.984375 134.625 82.457031 C 134.625 81.957031 134.476562 81.808594 133.925781 81.757812 C 133.5 81.707031 133 81.855469 132.726562 82.109375 C 132.300781 82.507812 132.25 82.507812 132.25 82.132812 C 132.25 81.808594 132.023438 81.707031 131.375 81.707031 L 130.5 81.707031 Z M 130.5 84.964844 "/>
</g>
</svg>
